{
	"asset":{
		"generator":"Khronos glTF Blender I/O v4.4.56",
		"version":"2.0"
	},
	"scene":0,
	"scenes":[
		{
			"name":"Scene",
			"nodes":[
				0,
				1,
				2,
				3,
				4
			]
		}
	],
	"nodes":[
		{
			"mesh":0,
			"name":"Archivero",
			"scale":[
				1,
				1.2000000476837158,
				1
			],
			"translation":[
				0,
				1.2000000476837158,
				0
			]
		},
		{
			"mesh":1,
			"name":"Cajon",
			"scale":[
				1,
				1.2000000476837158,
				1
			],
			"translation":[
				0,
				1.2000000476837158,
				0.699999988079071
			]
		},
		{
			"mesh":2,
			"name":"Cajon.001",
			"scale":[
				1,
				1.2000000476837158,
				1
			],
			"translation":[
				0,
				0.8000000715255737,
				0.699999988079071
			]
		},
		{
			"mesh":3,
			"name":"Cajon.002",
			"scale":[
				1,
				1.2000000476837158,
				1
			],
			"translation":[
				0,
				0.40000006556510925,
				0.699999988079071
			]
		},
		{
			"mesh":4,
			"name":"Lock",
			"rotation":[
				0.17956195771694183,
				0.03380347043275833,
				0.18189109861850739,
				0.9661937952041626
			],
			"translation":[
				0.37999993562698364,
				1.2700001001358032,
				-0.5299999713897705
			]
		}
	],
	"materials":[
		{
			"doubleSided":true,
			"name":"Archivero",
			"pbrMetallicRoughness":{
				"baseColorTexture":{
					"index":0
				},
				"metallicFactor":0,
				"roughnessFactor":0.5
			}
		},
		{
			"doubleSided":true,
			"name":"Cajon",
			"pbrMetallicRoughness":{
				"baseColorTexture":{
					"index":1
				},
				"metallicFactor":0,
				"roughnessFactor":0.5
			}
		},
		{
			"doubleSided":true,
			"name":"LockMaterial",
			"pbrMetallicRoughness":{
				"baseColorTexture":{
					"index":2
				},
				"metallicFactor":0,
				"roughnessFactor":0.5
			}
		}
	],
	"meshes":[
		{
			"name":"Cube.003",
			"primitives":[
				{
					"attributes":{
						"POSITION":0,
						"NORMAL":1,
						"TEXCOORD_0":2
					},
					"indices":3,
					"material":0
				}
			]
		},
		{
			"name":"Cube.002",
			"primitives":[
				{
					"attributes":{
						"POSITION":4,
						"NORMAL":5,
						"TEXCOORD_0":6
					},
					"indices":7,
					"material":1
				}
			]
		},
		{
			"name":"Cube.006",
			"primitives":[
				{
					"attributes":{
						"POSITION":8,
						"NORMAL":9,
						"TEXCOORD_0":10
					},
					"indices":7,
					"material":1
				}
			]
		},
		{
			"name":"Cube.007",
			"primitives":[
				{
					"attributes":{
						"POSITION":11,
						"NORMAL":12,
						"TEXCOORD_0":13
					},
					"indices":7,
					"material":1
				}
			]
		},
		{
			"name":"Cube.008",
			"primitives":[
				{
					"attributes":{
						"POSITION":14,
						"NORMAL":15,
						"TEXCOORD_0":16
					},
					"indices":17,
					"material":2
				}
			]
		}
	],
	"textures":[
		{
			"sampler":0,
			"source":0
		},
		{
			"sampler":0,
			"source":1
		},
		{
			"sampler":0,
			"source":2
		}
	],
	"images":[
		{
			"mimeType":"image/png",
			"name":"archivero",
			"uri":"archivero.png"
		},
		{
			"mimeType":"image/png",
			"name":"cajon_texture",
			"uri":"cajon_texture.png"
		},
		{
			"mimeType":"image/png",
			"name":"lock_texture",
			"uri":"lock_texture.png"
		}
	],
	"accessors":[
		{
			"bufferView":0,
			"componentType":5126,
			"count":52,
			"max":[
				0.42746293544769287,
				0.25,
				0.4717780351638794
			],
			"min":[
				-0.42746293544769287,
				-1,
				-0.4717780351638794
			],
			"type":"VEC3"
		},
		{
			"bufferView":1,
			"componentType":5126,
			"count":52,
			"type":"VEC3"
		},
		{
			"bufferView":2,
			"componentType":5126,
			"count":52,
			"type":"VEC2"
		},
		{
			"bufferView":3,
			"componentType":5123,
			"count":84,
			"type":"SCALAR"
		},
		{
			"bufferView":4,
			"componentType":5126,
			"count":84,
			"max":[
				0.3138781785964966,
				0.13851824402809143,
				-0.5861217975616455
			],
			"min":[
				-0.3138781785964966,
				-0.13851815462112427,
				-1.223878026008606
			],
			"type":"VEC3"
		},
		{
			"bufferView":5,
			"componentType":5126,
			"count":84,
			"type":"VEC3"
		},
		{
			"bufferView":6,
			"componentType":5126,
			"count":84,
			"type":"VEC2"
		},
		{
			"bufferView":7,
			"componentType":5123,
			"count":132,
			"type":"SCALAR"
		},
		{
			"bufferView":8,
			"componentType":5126,
			"count":84,
			"max":[
				0.3138781785964966,
				0.13851824402809143,
				-0.5861217975616455
			],
			"min":[
				-0.3138781785964966,
				-0.13851815462112427,
				-1.223878026008606
			],
			"type":"VEC3"
		},
		{
			"bufferView":9,
			"componentType":5126,
			"count":84,
			"type":"VEC3"
		},
		{
			"bufferView":10,
			"componentType":5126,
			"count":84,
			"type":"VEC2"
		},
		{
			"bufferView":11,
			"componentType":5126,
			"count":84,
			"max":[
				0.3138781785964966,
				0.13851824402809143,
				-0.5861217975616455
			],
			"min":[
				-0.3138781785964966,
				-0.13851815462112427,
				-1.223878026008606
			],
			"type":"VEC3"
		},
		{
			"bufferView":12,
			"componentType":5126,
			"count":84,
			"type":"VEC3"
		},
		{
			"bufferView":13,
			"componentType":5126,
			"count":84,
			"type":"VEC2"
		},
		{
			"bufferView":14,
			"componentType":5126,
			"count":92,
			"max":[
				0.06273673474788666,
				0.17625775933265686,
				0.018421605229377747
			],
			"min":[
				-0.06273673474788666,
				-0.06273673474788666,
				-0.018421607092022896
			],
			"type":"VEC3"
		},
		{
			"bufferView":15,
			"componentType":5126,
			"count":92,
			"type":"VEC3"
		},
		{
			"bufferView":16,
			"componentType":5126,
			"count":92,
			"type":"VEC2"
		},
		{
			"bufferView":17,
			"componentType":5123,
			"count":264,
			"type":"SCALAR"
		}
	],
	"bufferViews":[
		{
			"buffer":0,
			"byteLength":624,
			"byteOffset":0,
			"target":34962
		},
		{
			"buffer":0,
			"byteLength":624,
			"byteOffset":624,
			"target":34962
		},
		{
			"buffer":0,
			"byteLength":416,
			"byteOffset":1248,
			"target":34962
		},
		{
			"buffer":0,
			"byteLength":168,
			"byteOffset":1664,
			"target":34963
		},
		{
			"buffer":0,
			"byteLength":1008,
			"byteOffset":1832,
			"target":34962
		},
		{
			"buffer":0,
			"byteLength":1008,
			"byteOffset":2840,
			"target":34962
		},
		{
			"buffer":0,
			"byteLength":672,
			"byteOffset":3848,
			"target":34962
		},
		{
			"buffer":0,
			"byteLength":264,
			"byteOffset":4520,
			"target":34963
		},
		{
			"buffer":0,
			"byteLength":1008,
			"byteOffset":4784,
			"target":34962
		},
		{
			"buffer":0,
			"byteLength":1008,
			"byteOffset":5792,
			"target":34962
		},
		{
			"buffer":0,
			"byteLength":672,
			"byteOffset":6800,
			"target":34962
		},
		{
			"buffer":0,
			"byteLength":1008,
			"byteOffset":7472,
			"target":34962
		},
		{
			"buffer":0,
			"byteLength":1008,
			"byteOffset":8480,
			"target":34962
		},
		{
			"buffer":0,
			"byteLength":672,
			"byteOffset":9488,
			"target":34962
		},
		{
			"buffer":0,
			"byteLength":1104,
			"byteOffset":10160,
			"target":34962
		},
		{
			"buffer":0,
			"byteLength":1104,
			"byteOffset":11264,
			"target":34962
		},
		{
			"buffer":0,
			"byteLength":736,
			"byteOffset":12368,
			"target":34962
		},
		{
			"buffer":0,
			"byteLength":528,
			"byteOffset":13104,
			"target":34963
		}
	],
	"samplers":[
		{
			"magFilter":9728,
			"minFilter":9984
		}
	],
	"buffers":[
		{
			"byteLength":13632,
			"uri":"archivero.bin"
		}
	]
}
