{
	"asset":{
		"generator":"Khronos glTF Blender I/O v4.4.56",
		"version":"2.0"
	},
	"scene":0,
	"scenes":[
		{
			"name":"Scene",
			"nodes":[
				0,
				1,
				2,
				3,
				4
			]
		}
	],
	"nodes":[
		{
			"mesh":0,
			"name":"CajaCables",
			"scale":[
				0.20398211479187012,
				0.20398211479187012,
				0.20398211479187012
			],
			"translation":[
				0,
				1.3000000715255737,
				0
			]
		},
		{
			"mesh":1,
			"name":"CableAzul",
			"scale":[
				0.006087098270654678,
				0.006087098270654678,
				0.006087098270654678
			],
			"translation":[
				-0.14000000059604645,
				1.4500000476837158,
				0
			]
		},
		{
			"mesh":2,
			"name":"CableVerde",
			"scale":[
				0.006087098270654678,
				0.006087098270654678,
				0.006087098270654678
			],
			"translation":[
				-0.14068911969661713,
				1.4356852769851685,
				0
			]
		},
		{
			"mesh":3,
			"name":"CableNegro",
			"scale":[
				0.006087098270654678,
				0.006087098270654678,
				0.006087098270654678
			],
			"translation":[
				-0.13835713267326355,
				1.4168806076049805,
				0
			]
		},
		{
			"mesh":4,
			"name":"CableRojo",
			"scale":[
				0.006087098270654678,
				0.006087098270654678,
				0.006087098270654678
			],
			"translation":[
				-0.13737058639526367,
				1.4266513586044312,
				0
			]
		}
	],
	"materials":[
		{
			"doubleSided":true,
			"name":"CajaCablesMaterial",
			"pbrMetallicRoughness":{
				"baseColorTexture":{
					"index":0
				},
				"metallicFactor":0
			}
		},
		{
			"doubleSided":true,
			"name":"CablesMat",
			"pbrMetallicRoughness":{
				"baseColorTexture":{
					"index":1
				},
				"metallicFactor":0,
				"roughnessFactor":0.5
			}
		}
	],
	"meshes":[
		{
			"name":"Cube.009",
			"primitives":[
				{
					"attributes":{
						"POSITION":0,
						"NORMAL":1,
						"TEXCOORD_0":2
					},
					"indices":3,
					"material":0
				}
			]
		},
		{
			"name":"Cube.012",
			"primitives":[
				{
					"attributes":{
						"POSITION":4,
						"NORMAL":5,
						"TEXCOORD_0":6
					},
					"indices":7,
					"material":1
				}
			]
		},
		{
			"name":"Cube.013",
			"primitives":[
				{
					"attributes":{
						"POSITION":8,
						"NORMAL":9,
						"TEXCOORD_0":10
					},
					"indices":11,
					"material":1
				}
			]
		},
		{
			"name":"Cube.014",
			"primitives":[
				{
					"attributes":{
						"POSITION":12,
						"NORMAL":13,
						"TEXCOORD_0":14
					},
					"indices":7,
					"material":1
				}
			]
		},
		{
			"name":"Cube.015",
			"primitives":[
				{
					"attributes":{
						"POSITION":15,
						"NORMAL":16,
						"TEXCOORD_0":17
					},
					"indices":18,
					"material":1
				}
			]
		}
	],
	"textures":[
		{
			"sampler":0,
			"source":0
		},
		{
			"sampler":0,
			"source":1
		}
	],
	"images":[
		{
			"mimeType":"image/png",
			"name":"caja_cables_texture",
			"uri":"caja_cables_texture.png"
		},
		{
			"mimeType":"image/png",
			"name":"Cables",
			"uri":"Cables.png"
		}
	],
	"accessors":[
		{
			"bufferView":0,
			"componentType":5126,
			"count":148,
			"max":[
				1,
				2.470717191696167,
				1
			],
			"min":[
				-1,
				-1,
				-0.05455401539802551
			],
			"type":"VEC3"
		},
		{
			"bufferView":1,
			"componentType":5126,
			"count":148,
			"type":"VEC3"
		},
		{
			"bufferView":2,
			"componentType":5126,
			"count":148,
			"type":"VEC2"
		},
		{
			"bufferView":3,
			"componentType":5123,
			"count":264,
			"type":"SCALAR"
		},
		{
			"bufferView":4,
			"componentType":5126,
			"count":170,
			"max":[
				48.03558349609375,
				1,
				20.013683319091797
			],
			"min":[
				-2.642819404602051,
				-5.904734134674072,
				-1
			],
			"type":"VEC3"
		},
		{
			"bufferView":5,
			"componentType":5126,
			"count":170,
			"type":"VEC3"
		},
		{
			"bufferView":6,
			"componentType":5126,
			"count":170,
			"type":"VEC2"
		},
		{
			"bufferView":7,
			"componentType":5123,
			"count":276,
			"type":"SCALAR"
		},
		{
			"bufferView":8,
			"componentType":5126,
			"count":170,
			"max":[
				48.03558349609375,
				1,
				20.013683319091797
			],
			"min":[
				-2.642819404602051,
				-5.904734134674072,
				-1
			],
			"type":"VEC3"
		},
		{
			"bufferView":9,
			"componentType":5126,
			"count":170,
			"type":"VEC3"
		},
		{
			"bufferView":10,
			"componentType":5126,
			"count":170,
			"type":"VEC2"
		},
		{
			"bufferView":11,
			"componentType":5123,
			"count":276,
			"type":"SCALAR"
		},
		{
			"bufferView":12,
			"componentType":5126,
			"count":170,
			"max":[
				48.03558349609375,
				-4.523632049560547,
				20.013683319091797
			],
			"min":[
				-2.9851670265197754,
				-8.091489791870117,
				-0.9999967217445374
			],
			"type":"VEC3"
		},
		{
			"bufferView":13,
			"componentType":5126,
			"count":170,
			"type":"VEC3"
		},
		{
			"bufferView":14,
			"componentType":5126,
			"count":170,
			"type":"VEC2"
		},
		{
			"bufferView":15,
			"componentType":5126,
			"count":170,
			"max":[
				48.03558349609375,
				-0.8618206977844238,
				20.013683319091797
			],
			"min":[
				-2.9326605796813965,
				-5.904734134674072,
				-1.000001311302185
			],
			"type":"VEC3"
		},
		{
			"bufferView":16,
			"componentType":5126,
			"count":170,
			"type":"VEC3"
		},
		{
			"bufferView":17,
			"componentType":5126,
			"count":170,
			"type":"VEC2"
		},
		{
			"bufferView":18,
			"componentType":5123,
			"count":276,
			"type":"SCALAR"
		}
	],
	"bufferViews":[
		{
			"buffer":0,
			"byteLength":1776,
			"byteOffset":0,
			"target":34962
		},
		{
			"buffer":0,
			"byteLength":1776,
			"byteOffset":1776,
			"target":34962
		},
		{
			"buffer":0,
			"byteLength":1184,
			"byteOffset":3552,
			"target":34962
		},
		{
			"buffer":0,
			"byteLength":528,
			"byteOffset":4736,
			"target":34963
		},
		{
			"buffer":0,
			"byteLength":2040,
			"byteOffset":5264,
			"target":34962
		},
		{
			"buffer":0,
			"byteLength":2040,
			"byteOffset":7304,
			"target":34962
		},
		{
			"buffer":0,
			"byteLength":1360,
			"byteOffset":9344,
			"target":34962
		},
		{
			"buffer":0,
			"byteLength":552,
			"byteOffset":10704,
			"target":34963
		},
		{
			"buffer":0,
			"byteLength":2040,
			"byteOffset":11256,
			"target":34962
		},
		{
			"buffer":0,
			"byteLength":2040,
			"byteOffset":13296,
			"target":34962
		},
		{
			"buffer":0,
			"byteLength":1360,
			"byteOffset":15336,
			"target":34962
		},
		{
			"buffer":0,
			"byteLength":552,
			"byteOffset":16696,
			"target":34963
		},
		{
			"buffer":0,
			"byteLength":2040,
			"byteOffset":17248,
			"target":34962
		},
		{
			"buffer":0,
			"byteLength":2040,
			"byteOffset":19288,
			"target":34962
		},
		{
			"buffer":0,
			"byteLength":1360,
			"byteOffset":21328,
			"target":34962
		},
		{
			"buffer":0,
			"byteLength":2040,
			"byteOffset":22688,
			"target":34962
		},
		{
			"buffer":0,
			"byteLength":2040,
			"byteOffset":24728,
			"target":34962
		},
		{
			"buffer":0,
			"byteLength":1360,
			"byteOffset":26768,
			"target":34962
		},
		{
			"buffer":0,
			"byteLength":552,
			"byteOffset":28128,
			"target":34963
		}
	],
	"samplers":[
		{
			"magFilter":9728,
			"minFilter":9984
		}
	],
	"buffers":[
		{
			"byteLength":28680,
			"uri":"caja_cables.bin"
		}
	]
}
