{
	"asset":{
		"generator":"Khronos glTF Blender I/O v4.4.56",
		"version":"2.0"
	},
	"scene":0,
	"scenes":[
		{
			"name":"Scene",
			"nodes":[
				0
			]
		}
	],
	"nodes":[
		{
			"mesh":0,
			"name":"Llave",
			"scale":[
				0.08355599641799927,
				0.08355599641799927,
				0.08355599641799927
			]
		}
	],
	"materials":[
		{
			"doubleSided":true,
			"name":"KeyMaterial",
			"pbrMetallicRoughness":{
				"baseColorTexture":{
					"index":0
				},
				"metallicFactor":0,
				"roughnessFactor":0.5
			}
		}
	],
	"meshes":[
		{
			"name":"Cube.005",
			"primitives":[
				{
					"attributes":{
						"POSITION":0,
						"NORMAL":1,
						"TEXCOORD_0":2
					},
					"indices":3,
					"material":0
				}
			]
		}
	],
	"textures":[
		{
			"sampler":0,
			"source":0
		}
	],
	"images":[
		{
			"mimeType":"image/png",
			"name":"key_texture",
			"uri":"key_texture.png"
		}
	],
	"accessors":[
		{
			"bufferView":0,
			"componentType":5126,
			"count":310,
			"max":[
				5.626511096954346,
				1.2659529447555542,
				0.2650638818740845
			],
			"min":[
				-1.1329762935638428,
				-1.2659529447555542,
				-0.2650638818740845
			],
			"type":"VEC3"
		},
		{
			"bufferView":1,
			"componentType":5126,
			"count":310,
			"type":"VEC3"
		},
		{
			"bufferView":2,
			"componentType":5126,
			"count":310,
			"type":"VEC2"
		},
		{
			"bufferView":3,
			"componentType":5123,
			"count":609,
			"type":"SCALAR"
		}
	],
	"bufferViews":[
		{
			"buffer":0,
			"byteLength":3720,
			"byteOffset":0,
			"target":34962
		},
		{
			"buffer":0,
			"byteLength":3720,
			"byteOffset":3720,
			"target":34962
		},
		{
			"buffer":0,
			"byteLength":2480,
			"byteOffset":7440,
			"target":34962
		},
		{
			"buffer":0,
			"byteLength":1218,
			"byteOffset":9920,
			"target":34963
		}
	],
	"samplers":[
		{
			"magFilter":9728,
			"minFilter":9984
		}
	],
	"buffers":[
		{
			"byteLength":11140,
			"uri":"llave.bin"
		}
	]
}
