{
	"asset":{
		"generator":"Khronos glTF Blender I/O v4.4.56",
		"version":"2.0"
	},
	"scene":0,
	"scenes":[
		{
			"name":"Scene",
			"nodes":[
				0
			]
		}
	],
	"nodes":[
		{
			"mesh":0,
			"name":"Puerta",
			"translation":[
				0,
				1,
				0
			]
		}
	],
	"materials":[
		{
			"doubleSided":true,
			"name":"Door",
			"pbrMetallicRoughness":{
				"baseColorTexture":{
					"index":0
				},
				"metallicFactor":0.6220472455024719
			}
		}
	],
	"meshes":[
		{
			"name":"Cube.008",
			"primitives":[
				{
					"attributes":{
						"POSITION":0,
						"NORMAL":1,
						"TEXCOORD_0":2
					},
					"indices":3,
					"material":0
				}
			]
		}
	],
	"textures":[
		{
			"sampler":0,
			"source":0
		}
	],
	"images":[
		{
			"mimeType":"image/png",
			"name":"Door",
			"uri":"Door.png"
		}
	],
	"accessors":[
		{
			"bufferView":0,
			"componentType":5126,
			"count":296,
			"max":[
				1,
				2.3997700214385986,
				0.6003451943397522
			],
			"min":[
				-0.9999999403953552,
				-1,
				-0.5984218120574951
			],
			"type":"VEC3"
		},
		{
			"bufferView":1,
			"componentType":5126,
			"count":296,
			"type":"VEC3"
		},
		{
			"bufferView":2,
			"componentType":5126,
			"count":296,
			"type":"VEC2"
		},
		{
			"bufferView":3,
			"componentType":5123,
			"count":624,
			"type":"SCALAR"
		}
	],
	"bufferViews":[
		{
			"buffer":0,
			"byteLength":3552,
			"byteOffset":0,
			"target":34962
		},
		{
			"buffer":0,
			"byteLength":3552,
			"byteOffset":3552,
			"target":34962
		},
		{
			"buffer":0,
			"byteLength":2368,
			"byteOffset":7104,
			"target":34962
		},
		{
			"buffer":0,
			"byteLength":1248,
			"byteOffset":9472,
			"target":34963
		}
	],
	"samplers":[
		{
			"magFilter":9728,
			"minFilter":9984
		}
	],
	"buffers":[
		{
			"byteLength":10720,
			"uri":"Puerta.bin"
		}
	]
}
